<svg xmlns="http://www.w3.org/2000/svg" xmlns:xlink="http://www.w3.org/1999/xlink" version="1.1" width="256" height="256" viewBox="0 0 256 256" xml:space="preserve">

<defs>
</defs>
<g style="stroke: none; stroke-width: 0; stroke-dasharray: none; stroke-linecap: butt; stroke-linejoin: miter; stroke-miterlimit: 10; fill: none; fill-rule: nonzero; opacity: 1;" transform="translate(1.4065934065934016 1.4065934065934016) scale(2.81 2.81)" >
	<circle cx="44.995" cy="44.995" r="43.085" style="stroke: none; stroke-width: 1; stroke-dasharray: none; stroke-linecap: butt; stroke-linejoin: miter; stroke-miterlimit: 10; fill: rgb(59,196,196); fill-rule: nonzero; opacity: 1;" transform="  matrix(1 0 0 1 0 0) "/>
	<path d="M 63.963 25.83 c -2.456 -2.456 -5.722 -3.809 -9.195 -3.809 c -3.473 0 -6.739 1.353 -9.194 3.809 c -4.434 4.433 -5.032 11.5 -1.469 16.614 L 22.384 64.165 c -0.199 0.199 -0.199 0.523 0 0.722 l 2.522 2.522 c 0.199 0.199 0.523 0.199 0.722 0 l 2.739 -2.739 l 3.158 3.158 c 0.1 0.1 0.23 0.15 0.361 0.15 c 0.131 0 0.261 -0.05 0.361 -0.15 l 2.522 -2.522 c 0.199 -0.199 0.199 -0.523 0 -0.722 l -1.903 -1.903 l 2.626 -2.625 l 1.903 1.903 c 0.199 0.199 0.523 0.199 0.722 0 l 2.522 -2.522 c 0.096 -0.096 0.15 -0.225 0.15 -0.361 c 0 -0.136 -0.054 -0.265 -0.15 -0.361 l -3.158 -3.158 l 9.869 -9.869 c 5.114 3.563 12.18 2.965 16.614 -1.469 C 69.033 39.15 69.033 30.9 63.963 25.83 z M 60.697 40.953 c -3.27 3.269 -8.588 3.269 -11.857 0 s -3.269 -8.588 0 -11.857 c 1.635 -1.634 3.781 -2.451 5.929 -2.451 c 2.146 0 4.294 0.817 5.928 2.451 C 63.966 32.365 63.966 37.684 60.697 40.953 z" style="stroke: none; stroke-width: 1; stroke-dasharray: none; stroke-linecap: butt; stroke-linejoin: miter; stroke-miterlimit: 10; fill: rgb(0,0,0); fill-rule: nonzero; opacity: 1;" transform=" matrix(1 0 0 1 0 0) " stroke-linecap="round" />
	<path d="M 45 90 C 20.187 90 0 69.813 0 45 S 20.187 0 45 0 s 45 20.187 45 45 S 69.813 90 45 90 z M 45 3.83 C 22.299 3.83 3.83 22.299 3.83 45 c 0 22.701 18.469 41.17 41.17 41.17 c 22.701 0 41.17 -18.469 41.17 -41.17 C 86.17 22.299 67.701 3.83 45 3.83 z" style="stroke: none; stroke-width: 1; stroke-dasharray: none; stroke-linecap: butt; stroke-linejoin: miter; stroke-miterlimit: 10; fill: rgb(0,0,0); fill-rule: nonzero; opacity: 1;" transform=" matrix(1 0 0 1 0 0) " stroke-linecap="round" />
</g>
</svg>